<svg width="1000" height="882" viewBox="0 0 1000 882" fill="none" xmlns="http://www.w3.org/2000/svg">
<g clip-path="url(#clip0)">
<path d="M652.6 204L774.7 204L774.7 89.0002L652.6 89.0002L652.6 204Z" fill="#28204A"/>
<path d="M174.5 404.3L174.5 445L175.6 445L175.6 595.2L195.1 595.2L195.1 611.4L260.6 611.4L260.6 595.2L331.9 595.2L331.9 601.3L301.8 601.3L301.8 612.4L301.8 631.7L301.8 682.4L403.6 682.4L412.8 682.4L485.5 682.4L485.5 666.3L492.3 666.3L492.3 794.3L503.4 794.3L503.4 812.4L489.3 812.4L489.3 854.2L529.4 854.2L529.4 812.3L529.4 792.2L529.4 774.9L564 774.9L564 827.9L756.6 827.9L756.6 694.8L756.1 694.8L756.1 685.6L838.1 685.6L838.1 652.9L838.1 588.2L837.6 585.1L864.4 585.1L864.4 549.3L833.2 549.3L833.2 547.5L833 547.5L833 541L932 541L932 420.4L838.2 420.4L838.2 312.3L837.3 312.3L837.3 287.2L838.2 287.2L838.2 252.4L781.8 252.4L781.8 205.5L749.1 205.5L749.1 235.9L742.9 235.9L742.9 211.9L728 211.9L728 212.8L652.8 212.8L652.8 235.9L646.1 235.9L646.1 171.2L697.6 171.2L697.6 95.0002L701.3 95.0002L701.3 80.8002L721.3 80.8002L721.3 97.7002L735 97.7002L735 80.8002L767.2 80.8002L767.2 27.2002L663.4 27.2002L663.4 80.8002L686.8 80.8002L686.8 87.9002L646.1 87.9002L623.4 87.9002L623.4 235.8L623.4 264.5L623.4 266.7L613.7 266.7L613.7 239.1L613.7 201.6L613.7 172.2L613.7 159.9L516.2 159.9L516.2 165.9L508.4 165.9L508.4 156L487.4 156L466 156L458 156L458 184.5L430.9 184.5L430.9 156L379.3 156L379.3 254.8L281.4 254.8L174.4 254.8L174.4 294.2L174.4 316.8L55 316.8L55 404.3L174.5 404.3ZM719.9 653L719.5 653L719.5 685.7L719.9 685.7L719.9 694.9L627.4 694.9L627.4 684.3L614 684.3L614 678.3L622.9 678.3L622.9 641.8L630.2 641.8L630.2 646.5L630.2 658.1L676.5 658.1L690.2 646.5L711.7 646.5L711.7 637.2L719.9 637.2L719.9 653ZM797.9 653L755.1 653L755.1 613.4L719.9 613.4L719.9 624.7L711.7 624.7L711.7 601.9L712.2 601.9L712.2 588.2L797.9 588.2L797.9 653ZM706.4 402.4L727.3 402.4L727.3 331.8L709 331.8L709 324.8L738 324.8L738 287.1L749.2 287.1L751.2 287.1L777.4 287.1L781.9 287.1L785.4 287.1L785.4 323.9L801 323.9L801 346.2L781.7 346.2L781.7 427.3L781.8 427.3L781.8 475.1L775.3 475.1L775.3 420.4L773.3 420.4L742.9 420.4L716.4 420.4L716.4 421L716 421L716 409.9L710.6 409.9L706.3 409.9L706.3 402.4L706.4 402.4ZM704.3 460.4L710.6 454.6L717.5 449.8L732 449.8L742.9 459.8L742.9 515.1L775.3 515.1L775.3 504.4L781.8 504.4L781.8 541L799.6 541L799.6 547.5L681.8 547.5L681.8 574.3L681.4 574.3L681.4 601.3L676.5 601.3L630.2 601.3L630.2 617.9L622.9 617.9L622.9 561.5L567.6 561.5L567.6 576.4L555.4 576.4L555.4 520.4L555.4 519.5L555.4 493.9L555.5 493.9L555.5 466.2L557.9 466.2L557.9 441.9L566 441.9L566 482.9L618 482.9L618 454.5L655.3 454.5L655.3 489.3L704.3 489.3L704.3 460.4V460.4ZM487.4 290.8L488.3 290.8L488.3 262.1L508.4 262.1L508.4 186.6L516.2 186.6L516.2 201.5L568.8 201.5L568.8 239L555.7 239L555.7 314.3L613.7 314.3L613.7 295.1L623.4 295.1L623.4 308L652.8 308L652.8 324.8L680 324.8L680 331.8L662.9 331.8L644.4 331.8L644.4 381.2L653.6 392.9L662.8 402.4L675.9 402.4L675.9 409.9L655.2 409.9L617.9 409.9L617.9 375.3L564.9 375.3L564.9 415.1L557.8 415.1L557.8 375.3L555.4 375.3L551.1 375.3L490.1 375.3L490.1 368.6L508.4 368.6L508.4 331.8L508.4 322.1L508.4 302.8L487.4 302.8L487.4 290.8ZM524.1 520.4L524.1 558.6L496.3 558.6L496.3 608.6L524.1 608.6L546.3 608.6L555.4 608.6L555.4 595.2L567.6 595.2L567.6 678.2L582.5 678.2L582.5 684.2L562.4 684.2L562.4 705.3L563.1 705.3L563.1 744.4L529.4 744.4L529.4 673.7L550.4 673.7L550.4 625L493.4 625L493.4 641L485.4 641L485.4 628.7L485.3 628.7L485.3 613.8L428.7 613.8L428.7 628.7L412.7 628.7L412.7 612.3L361 612.3L361 601.2L361 520.4L524.1 520.4ZM260.6 566.6L260.6 460.2L287.4 460.2L287.4 389.1L281.4 389.1L281.4 316.8L281.4 294.2L379.3 294.2L430.9 294.2L455.8 294.2L455.8 290.9L466 290.9L466 322.2L461.4 322.2L439.5 322.2L439.5 368.7L461.4 368.7L461.4 375.4L433.6 375.4L433.6 444.6L413.1 463.2L361 463.2L361 462.2L331.8 462.2L331.8 463.2L326.4 463.2L317.5 463.2L317.5 569.2L260.6 569.2L260.6 566.6Z" fill="#28204A"/>
<path d="M801 347.7L801 396.9" stroke="#60558F" stroke-miterlimit="10" stroke-dasharray="3 3"/>
<path d="M652.6 87.9001L652.6 172.1" stroke="#60558F" stroke-miterlimit="10" stroke-dasharray="3 3"/>
<path d="M753.9 87.9001L669.6 87.9001" stroke="#60558F" stroke-miterlimit="10" stroke-dasharray="3 3"/>
<path d="M591.4 810.1L564.1 810.1" stroke="#60558F" stroke-miterlimit="10" stroke-dasharray="3 3"/>
<path d="M629.6 779.4L610.4 779.4" stroke="#60558F" stroke-miterlimit="10" stroke-dasharray="3 3"/>
<path d="M629.6 740.3L610.4 740.3" stroke="#60558F" stroke-miterlimit="10" stroke-dasharray="3 3"/>
<path d="M635.3 409.9L635.3 454.6" stroke="#60558F" stroke-miterlimit="10" stroke-dasharray="3 3"/>
<path d="M637.916 812.687L637.916 825.687L650.916 825.687L650.916 812.687L637.916 812.687Z" stroke="#60558F" stroke-width="2" stroke-miterlimit="10"/>
<path d="M677.478 714.093L677.478 727.093L690.478 727.093L690.478 714.093L677.478 714.093Z" stroke="#60558F" stroke-width="2" stroke-miterlimit="10"/>
<path d="M664.542 714.029L664.542 727.029L677.542 727.029L677.542 714.029L664.542 714.029Z" stroke="#60558F" stroke-width="2" stroke-miterlimit="10"/>
<path d="M651.705 714.066L651.705 727.066L664.705 727.066L664.705 714.066L651.705 714.066Z" stroke="#60558F" stroke-width="2" stroke-miterlimit="10"/>
<path d="M467.489 669.33L467.489 682.33L480.489 682.33L480.489 669.33L467.489 669.33Z" stroke="#60558F" stroke-width="2" stroke-miterlimit="10"/>
<path d="M348.14 521.244L348.14 534.244L361.14 534.244L361.14 521.244L348.14 521.244Z" stroke="#60558F" stroke-width="2" stroke-miterlimit="10"/>
<path d="M348.1 463.105L348.1 476.105L361.1 476.105L361.1 463.105L348.1 463.105Z" stroke="#60558F" stroke-width="2" stroke-miterlimit="10"/>
<path d="M541.494 500.508L541.494 513.508L554.494 513.508L554.494 500.508L541.494 500.508Z" stroke="#60558F" stroke-width="2" stroke-miterlimit="10"/>
<path d="M716.465 575.262L716.465 588.262L730.465 588.262L730.465 575.262L716.465 575.262Z" stroke="#60558F" stroke-width="2" stroke-miterlimit="10"/>
<path d="M698.325 619.505L698.325 646.405L712.325 646.405L712.325 619.505L698.325 619.505Z" stroke="#60558F" stroke-width="2" stroke-miterlimit="10"/>
<path d="M375.947 669.272L375.947 682.272L388.947 682.272L388.947 669.272L375.947 669.272Z" stroke="#60558F" stroke-width="2" stroke-miterlimit="10"/>
<path d="M376.526 661.997L376.526 668.497L384.326 668.497L384.326 661.997L376.526 661.997Z" stroke="#60558F" stroke-width="2" stroke-miterlimit="10"/>
<path d="M496.652 577.408L496.652 583.908L504.452 583.908L504.452 577.408L496.652 577.408Z" stroke="#60558F" stroke-width="2" stroke-miterlimit="10"/>
<path d="M496.183 584.129L496.183 596.229L511.383 596.229L511.383 584.129L496.183 584.129Z" stroke="#60558F" stroke-width="2" stroke-miterlimit="10"/>
<path d="M703.986 813.717L703.986 826.717L716.986 826.717L716.986 813.717L703.986 813.717Z" stroke="#60558F" stroke-width="2" stroke-miterlimit="10"/>
<path d="M724.546 813.757L724.546 826.757L737.546 826.757L737.546 813.757L724.546 813.757Z" stroke="#60558F" stroke-width="2" stroke-miterlimit="10"/>
<path d="M709.026 803.861L709.026 811.761L716.926 811.761L716.926 803.861L709.026 803.861Z" stroke="#60558F" stroke-width="2" stroke-miterlimit="10"/>
<path d="M666.258 782.499L666.258 795.599L681.458 795.599L681.458 782.499L666.258 782.499Z" stroke="#60558F" stroke-width="2" stroke-miterlimit="10"/>
<path d="M671.152 768.383L671.152 781.483L683.952 781.483L683.952 768.383L671.152 768.383Z" stroke="#60558F" stroke-width="2" stroke-miterlimit="10"/>
<path d="M838.1 685.6L756.6 685.6L756.6 828L564.1 828L564.1 776.1L529.4 776.1L529.4 854.2L489.3 854.2L489.3 812.3L503.2 812.3L503.2 793.9L492.6 793.9L492.6 666.8L487 666.8L487 682.3L301.7 682.3L301.7 601.3L331.9 601.3L331.9 595.2L261 595.2L261 611.4L195.1 611.4L195.1 595.2L175.6 595.2L175.6 404.3L54.9999 404.3L54.9999 316.8L174.5 316.8L174.5 254.8L379.3 254.8L379.3 156L431.2 156L431.2 183.9L458 183.9L458 156L509.5 156L509.5 165.1L515.5 165.1L515.5 159.9L613.7 159.9L613.7 266.7L623.4 266.7L623.4 87.9002L687.4 87.9002L687.4 80.6002L663.4 80.6002L663.4 27.0002L767.2 27.0002L767.2 80.6002L735.4 80.6002L735.4 89.0002L774.5 89.0002L774.5 204.5L781.7 204.5L781.7 252L838.1 252L838.1 419.2L931.9 419.2L931.9 541.6L833.6 541.6L833.6 548.3L864.3 548.3L864.3 585.2L837.5 585.2L838.1 685.6Z" stroke="#60558F" stroke-width="2" stroke-miterlimit="10"/>
<path d="M582.5 684.5L562.4 684.5L562.4 744.4L529.6 744.4L529.6 673.7L550.5 673.7L550.5 625L493.4 625L493.4 641L485.4 641L485.4 612.3L428.8 612.3L428.8 628L413.9 628L413.9 612.3L361.1 612.3L361.1 520.4L524.1 520.4L524.1 557.3L496.2 557.3L496.2 608.6L554.9 608.6L554.9 594.5L567.6 594.5L567.6 678.2L582.5 678.2L582.5 684.5Z" stroke="#60558F" stroke-width="2" stroke-miterlimit="10"/>
<path d="M461.4 376.1L432.9 376.1L432.9 444.5L413.2 463.1L317.5 463.1L317.5 569.2L260.6 569.2L260.6 460.1L287.4 460.1L287.4 388.3L281.4 388.3L281.4 294.2L456.7 294.2L456.7 290.8L466 290.8L466 321.4L439.6 321.4L439.6 368.6L461.4 368.6L461.4 376.1Z" stroke="#60558F" stroke-width="2" stroke-miterlimit="10"/>
<path d="M799.6 540.2L799.6 547.5L681.8 547.5L681.8 601.3L629.6 601.3L629.6 617.8L622.9 617.8L622.9 561.5L568.8 561.5L568.8 576.8L555.4 576.8L555.4 466.3L558.5 466.3L558.5 442L566 442L566 483L619 483L619 455.4L655.3 455.4L655.3 489.5L705 489.5L705 460.4L717.5 449.8L732.1 449.8L742.9 459.9L742.9 515.1L774.7 515.1L774.7 504.8L782.8 504.8L782.8 540.3L799.6 540.2Z" stroke="#60558F" stroke-width="2" stroke-miterlimit="10"/>
<path d="M781.8 475.2L775.3 475.2L775.3 420.5L715 420.5L715 409.6L706.4 409.6L706.4 402.4L727.3 402.4L727.3 331.2L709.2 331.2L709.2 324.8L737.9 324.8L737.9 287.1L785.4 287.1L785.4 324L801 324L801 346L781.7 346L781.8 475.2Z" stroke="#60558F" stroke-width="2" stroke-miterlimit="10"/>
<path d="M675.5 403.6L675.5 409.9L617.1 409.9L617.1 375.3L564.6 375.3L564.6 415.1L557.9 415.1L557.9 375.3L490.9 375.3L490.9 369L508.4 369L508.4 302.8L488.3 302.8L488.3 262.2L508.4 262.2L508.4 186.7L516.2 186.7L516.2 201.5L569.4 201.5L569.4 239.5L555.7 239.5L555.7 314.3L614.5 314.3L614.5 295.3L623 295.3L623 308.7L653.5 308.7L653.5 325.1L680 325.1L680 331.8L643.5 331.8L643.5 381.2L662.9 403.5L675.5 403.6Z" stroke="#60558F" stroke-width="2" stroke-miterlimit="10"/>
<path d="M719.5 694.8L719.5 637.1L712.5 637.1L712.5 647.4L689.6 647.4L677.5 658L630.2 658L630.2 640.7L622.1 640.7L622.1 677.5L614 677.5L614 684.2L627.4 684.2L627.4 694.8L719.5 694.8Z" stroke="#60558F" stroke-width="2" stroke-miterlimit="10"/>
<path d="M797.9 653L797.9 588.2L712.2 588.2L712.2 625.1L719.5 625.1L719.5 613.4L755.1 613.4L755.1 653L797.9 653Z" stroke="#60558F" stroke-width="2" stroke-miterlimit="10"/>
<path d="M749.1 205.4L749.1 235.8L742.7 235.8L742.7 211.8L652.2 211.8L652.2 235.8L646.1 235.8L646.1 172.1L652.8 172.1L652.8 205.4L749.1 205.4Z" stroke="#60558F" stroke-width="2" stroke-miterlimit="10"/>
<path d="M701.9 88.2002L720.7 88.2002L720.7 80.4002L701.9 80.4002L701.9 88.2002Z" stroke="#60558F" stroke-width="2" stroke-miterlimit="10"/>
<path d="M361.1 463.1L361.1 493.1L459.7 493.1L459.7 463.1" stroke="#60558F" stroke-miterlimit="10" stroke-dasharray="3 3"/>
<path d="M643.5 372.3L661.7 372.3L661.7 331.8" stroke="#60558F" stroke-miterlimit="10" stroke-dasharray="3 3"/>
<path d="M716.4 311.1L716.4 296.1L670.1 296.1L670.1 325.1" stroke="#60558F" stroke-miterlimit="10" stroke-dasharray="3 3"/>
<path d="M555.4 493.1C552.9 494.2 488.3 493.1 488.3 493.1L488.3 463.1" stroke="#60558F" stroke-miterlimit="10" stroke-dasharray="3 3"/>
<path d="M635.3 639.3L661.7 639.3L661.7 611.4L629.6 611.4" stroke="#60558F" stroke-miterlimit="10" stroke-dasharray="3 3"/>
<path d="M564.1 792.2L591.4 792.2L591.4 828" stroke="#60558F" stroke-miterlimit="10" stroke-dasharray="3 3"/>
<path d="M716.9 828L716.9 694.8" stroke="#60558F" stroke-miterlimit="10" stroke-dasharray="3 3"/>
<path d="M629.6 828L629.6 694.8" stroke="#60558F" stroke-miterlimit="10" stroke-dasharray="3 3"/>
<path d="M690.2 647.4L700.2 647.4L700.2 639.3L690.2 639.3L690.2 647.4Z" stroke="#60558F" stroke-width="2" stroke-miterlimit="10"/>
<path d="M702.2 619.5L710.3 619.5L710.3 611.4L702.2 611.4L702.2 619.5Z" stroke="#60558F" stroke-width="2" stroke-miterlimit="10"/>
<path d="M655.3 489.5L670.1 489.5L670.1 478.2L655.3 478.2L655.3 489.5Z" stroke="#60558F" stroke-width="2" stroke-miterlimit="10"/>
<path d="M670.1 489.5L677.5 489.5L677.5 482.1L670.1 482.1L670.1 489.5Z" stroke="#60558F" stroke-width="2" stroke-miterlimit="10"/>
<path d="M564.6 389L578.8 389L578.8 375.3L564.6 375.3L564.6 389Z" stroke="#60558F" stroke-width="2" stroke-miterlimit="10"/>
<path d="M564.6 394.6L573 394.6L573 389L564.6 389L564.6 394.6Z" stroke="#60558F" stroke-width="2" stroke-miterlimit="10"/>
<path d="M600.9 314.3L613.5 314.3L613.5 301.7L600.9 301.7L600.9 314.3Z" stroke="#60558F" stroke-width="2" stroke-miterlimit="10"/>
<path d="M674.3 235.8L723.1 235.8L723.1 224.6L674.3 224.6L674.3 235.8Z" stroke="#60558F" stroke-width="2" stroke-miterlimit="10"/>
<path d="M595 195.9L613.5 195.9L613.5 181.9L595 181.9L595 195.9Z" stroke="#60558F" stroke-width="2" stroke-miterlimit="10"/>
<path d="M600.5 195.9L613.5 195.9L613.5 181.9L600.5 181.9L600.5 195.9Z" stroke="#60558F" stroke-width="2" stroke-miterlimit="10"/>
<path d="M652.7 201.9L666.7 201.9L666.7 187.9L652.7 187.9L652.7 201.9Z" stroke="#60558F" stroke-width="2" stroke-miterlimit="10"/>
<path d="M667.9 201.9L676 201.9L676 192.2L667.9 192.2L667.9 201.9Z" stroke="#60558F" stroke-width="2" stroke-miterlimit="10"/>
<path d="M760.8 169.9L774.5 169.9L774.5 154.3L760.8 154.3L760.8 169.9Z" stroke="#60558F" stroke-width="2" stroke-miterlimit="10"/>
<path d="M687.4 152.3L700 152.3L700 137.5L687.4 137.5L687.4 152.3Z" stroke="#60558F" stroke-width="2" stroke-miterlimit="10"/>
<path d="M701.9 148.1L716 148.1L716 134L701.9 134L701.9 148.1Z" stroke="#60558F" stroke-width="2" stroke-miterlimit="10"/>
<path d="M692.315 144.393L702.66 153.974L712.241 143.629L701.896 134.048L692.315 144.393Z" stroke="#60558F" stroke-width="2" stroke-miterlimit="10"/>
<path d="M472.9 417.3C467.211 417.3 462.6 421.911 462.6 427.6C462.6 433.288 467.211 437.9 472.9 437.9C478.588 437.9 483.2 433.288 483.2 427.6C483.2 421.911 478.588 417.3 472.9 417.3Z" stroke="#60558F" stroke-width="2" stroke-miterlimit="10"/>
<path d="M472.9 422.8C470.249 422.8 468.1 424.949 468.1 427.6C468.1 430.251 470.249 432.4 472.9 432.4C475.551 432.4 477.7 430.251 477.7 427.6C477.7 424.949 475.551 422.8 472.9 422.8Z" stroke="#60558F" stroke-width="2" stroke-miterlimit="10"/>
<path d="M633.5 130L639.6 130L639.6 126.4L633.5 126.4L633.5 130Z" stroke="#60558F" stroke-width="2" stroke-miterlimit="10"/>
<path d="M633.5 137.5L639.6 137.5L639.6 134L633.5 134L633.5 137.5Z" stroke="#60558F" stroke-width="2" stroke-miterlimit="10"/>
<path d="M633.5 144.9L639.6 144.9L639.6 140.4L633.5 140.4L633.5 144.9Z" stroke="#60558F" stroke-width="2" stroke-miterlimit="10"/>
<path opacity="0.6" d="M634.463 826.544L639.319 826.544L639.319 825.544L649.03 825.544L649.03 826.544L653.886 826.544L653.886 825.544L663.597 825.544L663.597 826.544L668.452 826.544L668.452 825.544L678.163 825.544L678.163 826.544L683.019 826.544L683.019 825.544L692.73 825.544L692.73 826.544L697.586 826.544L697.586 825.544L707.297 825.544L707.297 826.544L712.152 826.544L712.152 825.544L716.008 825.544L716.008 821.666L717.008 821.666L717.008 816.788L716.008 816.788L716.008 807.033L717.008 807.033L717.008 802.155L716.008 802.155L716.008 792.4L717.008 792.4L717.008 787.522L716.008 787.522L716.008 777.766L717.008 777.766L717.008 772.888L716.008 772.888L716.008 763.133L717.008 763.133L717.008 758.255L716.008 758.255L716.008 748.5L717.008 748.5L717.008 743.622L716.008 743.622L716.008 733.866L717.008 733.866L717.008 728.988L716.008 728.988L716.008 719.233L717.008 719.233L717.008 714.355L716.008 714.355L716.008 704.6L717.008 704.6L717.008 699.722L716.008 699.722L716.008 695.844L712.152 695.844L712.152 694.844L707.297 694.844L707.297 695.844L697.586 695.844L697.586 694.844L692.73 694.844L692.73 695.844L683.019 695.844L683.019 694.844L678.163 694.844L678.163 695.844L668.452 695.844L668.452 694.844L663.597 694.844L663.597 695.844L653.886 695.844L653.886 694.844L649.03 694.844L649.03 695.844L639.319 695.844L639.319 694.844L634.463 694.844L634.463 695.844L630.608 695.844L630.608 699.722L629.608 699.722L629.608 704.6L630.608 704.6L630.608 714.355L629.608 714.355L629.608 719.233L630.608 719.233L630.608 728.988L629.608 728.988L629.608 733.866L630.608 733.866L630.608 743.622L629.608 743.622L629.608 748.5L630.608 748.5L630.608 758.255L629.608 758.255L629.608 763.133L630.608 763.133L630.608 772.888L629.608 772.888L629.608 777.766L630.608 777.766L630.608 787.522L629.608 787.522L629.608 792.399L630.608 792.399L630.608 802.155L629.608 802.155L629.608 807.033L630.608 807.033L630.608 816.788L629.608 816.788L629.608 821.666L630.608 821.666L630.608 825.544L634.463 825.544L634.463 826.544Z" fill="#535895" stroke="white" stroke-width="2" stroke-dasharray="10 5"/>
<path opacity="0.6" d="M657.739 205.349L662.827 205.349L662.827 204.349L673.002 204.349L673.002 205.349L678.089 205.349L678.089 204.349L688.264 204.349L688.264 205.349L693.352 205.349L693.352 204.349L703.527 204.349L703.527 205.349L708.614 205.349L708.614 204.349L718.789 204.349L718.789 205.349L723.877 205.349L723.877 204.349L734.052 204.349L734.052 205.349L739.139 205.349L739.139 204.349L749.314 204.349L749.314 205.349L754.402 205.349L754.402 204.349L764.577 204.349L764.577 205.349L769.664 205.349L769.664 204.349L773.752 204.349L773.752 200.469L774.752 200.469L774.752 195.59L773.752 195.59L773.752 185.832L774.752 185.832L774.752 180.953L773.752 180.953L773.752 171.194L774.752 171.194L774.752 166.315L773.752 166.315L773.752 156.557L774.752 156.557L774.752 151.678L773.752 151.678L773.752 141.919L774.752 141.919L774.752 137.04L773.752 137.04L773.752 127.282L774.752 127.282L774.752 122.403L773.752 122.403L773.752 112.644L774.752 112.644L774.752 107.765L773.752 107.765L773.752 98.007L774.752 98.007L774.752 93.1278L773.752 93.1278L773.752 89.2487L769.664 89.2487L769.664 88.2487L764.577 88.2487L764.577 89.2487L754.402 89.2487L754.402 88.2487L749.314 88.2487L749.314 89.2487L739.139 89.2486L739.139 88.2486L734.052 88.2486L734.052 89.2486L723.877 89.2486L723.877 88.2486L718.789 88.2486L718.789 89.2486L708.614 89.2486L708.614 88.2486L703.527 88.2486L703.527 89.2486L693.352 89.2486L693.352 88.2486L688.264 88.2486L688.264 89.2486L678.089 89.2486L678.089 88.2486L673.002 88.2486L673.002 89.2486L662.827 89.2486L662.827 88.2486L657.739 88.2486L657.739 89.2486L653.652 89.2486L653.652 93.1278L652.652 93.1278L652.652 98.007L653.652 98.007L653.652 107.765L652.652 107.765L652.652 112.644L653.652 112.644L653.652 122.403L652.652 122.403L652.652 127.282L653.652 127.282L653.652 137.04L652.652 137.04L652.652 141.919L653.652 141.919L653.652 151.678L652.652 151.678L652.652 156.557L653.652 156.557L653.652 166.315L652.652 166.315L652.652 171.194L653.652 171.194L653.652 180.953L652.652 180.953L652.652 185.832L653.652 185.832L653.652 195.59L652.652 195.59L652.652 200.469L653.652 200.469L653.652 204.349L657.739 204.349L657.739 205.349Z" fill="#535895" stroke="white" stroke-width="2" stroke-dasharray="10 5"/>
<path d="M677.839 752.409L667.04 752.409L664.781 758.9L659.745 758.9L670.276 731.021L674.622 731.021L685.173 758.9L680.118 758.9L677.839 752.409ZM668.4 748.503L676.48 748.503L672.44 736.938L668.4 748.503Z" fill="white"/>
<path d="M725.234 159.9L725.234 132.021L734.789 132.021C737.942 132.021 740.341 132.653 741.988 133.917C743.635 135.181 744.458 137.064 744.458 139.566C744.458 140.842 744.114 141.991 743.424 143.012C742.735 144.033 741.726 144.825 740.399 145.387C741.905 145.795 743.067 146.567 743.884 147.703C744.713 148.827 745.128 150.18 745.128 151.763C745.128 154.379 744.286 156.39 742.601 157.794C740.929 159.198 738.529 159.9 735.401 159.9L725.234 159.9ZM730.078 147.32L730.078 156.033L735.459 156.033C736.978 156.033 738.165 155.656 739.02 154.903C739.876 154.15 740.303 153.103 740.303 151.763C740.303 148.865 738.822 147.384 735.861 147.32L730.078 147.32ZM730.078 143.759L734.827 143.759C736.333 143.759 737.508 143.421 738.35 142.744C739.205 142.055 739.633 141.085 739.633 139.834C739.633 138.455 739.237 137.459 738.446 136.847C737.667 136.234 736.448 135.928 734.789 135.928L730.078 135.928L730.078 143.759Z" fill="white"/>
</g>
<defs>
<clipPath id="clip0">
<rect width="1000" height="882" fill="white"/>
</clipPath>
</defs>
</svg>
